<?xml version="1.0" standalone="no"?>
<!DOCTYPE svg PUBLIC "-//W3C//DTD SVG 20010904//EN"
 "http://www.w3.org/TR/2001/REC-SVG-20010904/DTD/svg10.dtd">
<svg version="1.0" xmlns="http://www.w3.org/2000/svg"
 width="770.000000pt" height="218.000000pt" viewBox="0 0 770.000000 218.000000"
 preserveAspectRatio="xMidYMid meet">

<g transform="translate(0.000000,218.000000) scale(0.100000,-0.100000)"
fill="#000000" stroke="none">
<path d="M3495 1905 c-281 -61 -463 -261 -506 -555 -13 -94 -7 -221 16 -320
42 -177 170 -336 329 -410 145 -69 168 -72 649 -77 l427 -5 0 126 0 126 -94 0
-95 0 33 51 c70 105 113 297 101 447 -26 337 -213 558 -522 617 -94 18 -256
18 -338 0z m232 -234 c89 -13 179 -59 236 -120 74 -79 107 -173 107 -307 0
-260 -112 -407 -341 -446 -169 -29 -338 53 -414 202 -74 145 -60 388 29 513
73 102 163 150 311 166 6 0 38 -3 72 -8z"/>
<path d="M4734 1907 c-3 -8 -4 -227 -2 -488 3 -463 4 -475 25 -534 50 -131
136 -226 263 -288 78 -38 93 -42 181 -45 162 -7 267 30 373 129 78 73 120 144
146 243 24 94 25 147 5 241 -21 100 -59 169 -134 245 -111 112 -230 157 -391
147 -75 -4 -111 -13 -202 -52 -17 -7 -18 7 -18 204 l0 211 -120 0 c-92 0 -122
-3 -126 -13z m571 -608 c56 -14 131 -79 156 -134 21 -45 25 -156 8 -202 -34
-91 -111 -152 -206 -160 -111 -10 -197 34 -248 128 -60 111 -28 257 71 329 68
49 134 60 219 39z"/>
<path d="M7175 1896 c-91 -39 -125 -172 -65 -256 71 -99 239 -88 295 20 23 45
19 130 -8 171 -49 73 -142 100 -222 65z"/>
<path d="M2036 1554 c-87 -21 -174 -71 -238 -137 -264 -274 -162 -716 194
-842 71 -25 87 -27 186 -23 89 4 117 9 166 31 32 15 60 27 62 27 1 0 4 -15 6
-33 l3 -32 123 -3 122 -3 0 304 c0 326 -4 356 -56 459 -39 78 -125 161 -212
206 -121 62 -230 77 -356 46z m218 -258 c90 -38 156 -138 155 -236 -2 -180
-164 -300 -329 -245 -107 36 -172 127 -172 240 0 110 55 197 154 240 42 18
149 19 192 1z"/>
<path d="M6450 1555 c-201 -49 -333 -183 -376 -385 -19 -89 -17 -153 5 -242
47 -185 147 -293 324 -353 59 -20 95 -25 169 -25 162 0 284 47 376 144 48 50
102 142 102 174 0 9 -37 12 -150 12 l-149 0 -15 -28 c-35 -68 -169 -96 -254
-53 -60 31 -112 111 -112 172 0 18 16 19 349 19 l350 0 3 28 c2 15 0 65 -4
111 -25 296 -319 499 -618 426z m193 -229 c21 -8 48 -22 59 -33 21 -19 58 -84
58 -103 0 -6 -65 -10 -190 -10 -125 0 -190 4 -190 10 0 6 9 28 20 50 43 84
146 120 243 86z"/>
<path d="M730 1537 c-239 -46 -390 -234 -392 -487 -2 -241 136 -427 359 -485
117 -31 285 -14 393 38 68 33 151 121 188 198 18 37 32 70 32 73 0 3 -67 6
-149 6 l-149 0 -20 -34 c-23 -39 -93 -76 -143 -76 -110 0 -192 69 -212 178
l-6 32 344 0 345 0 0 84 c0 265 -184 461 -451 480 -41 3 -103 0 -139 -7z m183
-231 c40 -17 72 -51 92 -99 l15 -37 -190 0 -190 0 15 37 c9 21 23 46 33 57 44
50 157 71 225 42z"/>
</g>
</svg>
